<svg id="svg" xmlns="http://www.w3.org/2000/svg" xmlns:xlink="http://www.w3.org/1999/xlink" width="400" height="400" viewBox="0, 0, 400,400" version="1.1"><g id="svgg"><path id="path0" d="M97.400 146.556 C 89.211 148.323,81.096 152.178,75.008 157.196 C 71.958 159.709,65.600 166.463,65.600 167.189 C 65.600 167.415,65.420 167.600,65.200 167.600 C 64.980 167.600,64.800 167.870,64.800 168.200 C 64.800 168.530,64.620 168.800,64.400 168.800 C 64.180 168.800,64.000 169.061,64.000 169.380 C 64.000 169.699,63.768 170.104,63.484 170.280 C 63.036 170.558,59.653 177.143,58.799 179.400 C 58.632 179.840,58.220 180.920,57.883 181.800 C 57.545 182.680,57.083 184.210,56.855 185.200 C 56.627 186.190,56.209 187.990,55.927 189.200 C 55.236 192.154,55.236 205.446,55.927 208.400 C 56.209 209.610,56.627 211.410,56.855 212.400 C 57.083 213.390,57.545 214.920,57.883 215.800 C 58.220 216.680,58.632 217.760,58.799 218.200 C 59.653 220.457,63.036 227.042,63.484 227.320 C 63.768 227.496,64.000 227.901,64.000 228.220 C 64.000 228.539,64.180 228.800,64.400 228.800 C 64.620 228.800,64.800 229.070,64.800 229.400 C 64.800 229.730,64.980 230.000,65.200 230.000 C 65.420 230.000,65.600 230.185,65.600 230.411 C 65.600 230.936,67.451 233.061,70.995 236.604 C 96.513 262.117,139.292 255.378,156.084 223.200 C 157.060 221.330,157.966 219.440,158.098 219.000 C 158.229 218.560,158.696 217.210,159.135 216.000 C 161.181 210.362,161.400 208.699,161.400 198.800 C 161.400 188.901,161.181 187.238,159.135 181.600 C 158.696 180.390,158.229 179.040,158.098 178.600 C 155.568 170.148,144.973 158.149,134.816 152.232 C 124.604 146.283,109.374 143.972,97.400 146.556 M114.800 152.579 C 123.638 153.763,131.144 157.089,138.605 163.125 C 144.318 167.747,150.080 175.833,152.191 182.190 C 152.554 183.285,152.997 184.365,153.176 184.590 C 154.456 186.211,155.628 199.168,154.944 204.155 L 154.688 206.022 149.255 205.911 C 144.016 205.804,143.806 205.767,143.358 204.867 C 139.204 196.523,126.343 199.924,126.343 209.367 C 126.343 218.120,137.837 221.814,142.769 214.645 L 144.038 212.800 148.584 212.800 L 153.129 212.800 152.157 215.480 C 151.029 218.590,148.547 223.236,146.458 226.147 L 145.000 228.180 144.884 224.915 C 144.701 219.758,141.961 217.578,139.169 220.369 L 138.000 221.538 138.000 228.388 L 138.000 235.237 136.803 235.919 C 136.144 236.293,135.604 236.735,135.603 236.900 C 135.601 237.065,135.420 237.200,135.200 237.200 C 134.952 237.200,134.800 234.994,134.800 231.382 C 134.800 224.708,134.325 223.600,131.462 223.600 C 128.409 223.600,128.225 224.113,128.000 233.263 L 127.800 241.397 125.600 242.254 C 124.390 242.726,122.995 243.233,122.500 243.383 L 121.600 243.654 121.599 216.927 L 121.598 190.200 125.619 190.327 C 129.358 190.445,129.664 190.517,129.981 191.350 C 130.934 193.857,134.012 196.137,137.113 196.632 C 143.522 197.657,149.185 190.788,147.031 184.601 C 144.625 177.685,135.268 176.187,130.949 182.027 L 129.800 183.581 123.554 183.591 C 117.849 183.599,117.217 183.672,116.254 184.429 L 115.200 185.258 115.200 215.193 L 115.200 245.128 111.837 245.408 C 85.156 247.631,62.000 225.840,62.000 198.509 C 62.000 190.961,61.465 191.600,67.785 191.600 L 73.084 191.600 74.163 193.306 C 79.084 201.093,90.800 197.376,90.800 188.028 C 90.800 186.719,90.620 185.536,90.400 185.400 C 90.180 185.264,90.000 184.881,90.000 184.550 C 90.000 183.414,87.935 181.239,85.889 180.220 C 81.522 178.044,76.600 179.471,73.815 183.721 C 73.205 184.652,63.998 185.571,64.000 184.700 C 64.003 183.176,68.034 175.228,70.666 171.556 L 72.200 169.417 72.433 171.609 C 72.871 175.731,75.118 177.238,77.746 175.171 C 78.797 174.344,78.800 174.324,78.825 168.471 L 78.850 162.600 80.625 161.306 L 82.400 160.011 82.400 164.880 C 82.400 170.613,82.883 171.600,85.688 171.600 C 88.840 171.600,89.200 170.708,89.200 162.892 L 89.200 156.148 91.700 155.270 C 93.075 154.787,94.335 154.394,94.500 154.396 C 94.665 154.398,94.800 166.550,94.800 181.400 L 94.800 208.400 91.000 208.400 C 87.989 208.400,87.200 208.282,87.200 207.834 C 87.200 207.044,84.458 204.227,82.942 203.460 C 78.694 201.310,72.701 203.262,70.845 207.400 C 70.549 208.060,70.148 208.913,69.953 209.295 C 67.633 213.855,72.968 220.782,78.800 220.782 C 82.158 220.782,87.182 217.741,87.197 215.700 C 87.199 215.323,88.622 215.200,92.969 215.200 C 98.592 215.200,98.770 215.174,99.969 214.164 L 101.200 213.129 101.200 182.836 L 101.200 152.543 103.291 152.448 C 104.440 152.395,105.460 152.273,105.557 152.176 C 105.912 151.821,110.710 152.030,114.800 152.579 M122.983 156.376 C 117.962 157.170,113.973 163.402,115.770 167.644 C 115.969 168.114,115.382 168.817,113.596 170.244 C 110.406 172.793,109.838 173.270,107.100 175.694 L 104.800 177.729 104.797 198.165 L 104.793 218.600 102.837 219.635 L 100.882 220.670 99.409 219.781 C 90.560 214.440,81.023 226.847,88.313 234.216 C 93.659 239.620,104.000 235.794,104.000 228.412 L 104.000 226.589 106.990 225.071 C 112.024 222.514,111.597 224.729,111.620 201.046 L 111.641 180.600 115.474 177.400 C 120.169 173.480,120.197 173.463,121.208 174.004 C 122.549 174.722,126.543 174.551,128.483 173.693 C 138.166 169.410,133.499 154.713,122.983 156.376 M294.654 157.411 C 274.917 162.388,275.092 190.729,294.887 195.396 C 301.909 197.051,309.808 195.353,314.337 191.213 C 316.466 189.266,316.427 189.089,313.208 186.086 L 310.514 183.573 309.157 184.849 C 303.092 190.552,292.814 188.429,289.993 180.889 C 285.578 169.088,298.856 159.724,308.817 167.614 C 310.665 169.077,310.870 169.007,313.955 165.861 C 316.510 163.256,316.480 163.046,313.228 160.652 C 308.632 157.269,300.704 155.885,294.654 157.411 M184.400 176.600 L 184.400 195.600 188.800 195.600 L 193.200 195.600 193.200 176.600 L 193.200 157.600 188.800 157.600 L 184.400 157.600 184.400 176.600 M202.000 176.600 L 202.000 195.600 216.600 195.600 L 231.200 195.600 231.200 191.800 L 231.200 188.000 221.000 188.000 L 210.800 188.000 210.800 183.800 L 210.800 179.600 219.600 179.600 L 228.400 179.600 228.400 176.000 L 228.400 172.400 219.600 172.400 L 210.800 172.400 210.800 168.600 L 210.800 164.800 220.800 164.800 L 230.800 164.800 230.800 161.200 L 230.800 157.600 216.400 157.600 L 202.000 157.600 202.000 176.600 M238.000 176.656 L 238.000 195.711 248.700 195.490 C 260.242 195.251,262.242 194.957,266.367 192.888 C 279.334 186.386,279.334 166.414,266.367 159.912 C 262.244 157.844,260.378 157.600,248.716 157.600 L 238.000 157.600 238.000 176.656 M126.146 163.629 C 127.505 164.698,127.505 166.102,126.146 167.171 C 124.781 168.245,124.180 168.216,122.982 167.018 C 120.699 164.735,123.601 161.627,126.146 163.629 M259.786 165.822 C 265.296 167.796,268.045 174.062,266.170 180.377 C 264.654 185.480,260.787 187.577,252.300 187.896 L 246.800 188.103 246.800 176.400 L 246.800 164.697 252.300 164.904 C 256.114 165.048,258.409 165.329,259.786 165.822 M140.235 186.197 C 141.598 188.277,139.626 190.687,137.394 189.670 C 134.831 188.502,135.427 185.200,138.200 185.200 C 139.231 185.200,139.747 185.453,140.235 186.197 M83.987 187.297 C 84.702 188.575,84.334 189.452,82.692 190.384 C 80.563 191.594,78.426 189.040,79.806 186.935 C 80.726 185.530,83.116 185.737,83.987 187.297 M184.400 223.200 L 184.400 242.000 199.000 242.000 L 213.600 242.000 213.600 238.400 L 213.600 234.800 203.400 234.800 L 193.200 234.800 193.200 230.600 L 193.200 226.400 202.000 226.400 L 210.800 226.400 210.800 222.800 L 210.800 219.200 202.000 219.200 L 193.200 219.200 193.200 215.400 L 193.200 211.600 203.200 211.600 L 213.200 211.600 213.200 208.000 L 213.200 204.400 198.800 204.400 L 184.400 204.400 184.400 223.200 M220.400 223.186 L 220.400 242.000 224.593 242.000 L 228.787 242.000 228.893 231.526 L 229.000 221.053 234.202 229.626 L 239.404 238.200 241.596 238.200 L 243.787 238.200 248.994 229.426 L 254.200 220.652 254.307 231.326 L 254.413 242.000 258.871 242.000 L 263.328 242.000 263.064 231.735 C 262.919 226.089,262.800 217.629,262.800 212.935 L 262.800 204.400 259.042 204.400 L 255.284 204.400 248.512 215.799 L 241.739 227.198 234.909 215.899 L 228.080 204.600 224.240 204.486 L 220.400 204.371 220.400 223.186 M271.600 223.200 L 271.600 242.000 286.200 242.000 L 300.800 242.000 300.800 238.400 L 300.800 234.800 290.600 234.800 L 280.400 234.800 280.400 230.600 L 280.400 226.400 289.200 226.400 L 298.000 226.400 298.000 222.800 L 298.000 219.200 289.200 219.200 L 280.400 219.200 280.400 215.400 L 280.400 211.600 290.400 211.600 L 300.400 211.600 300.400 208.000 L 300.400 204.400 286.000 204.400 L 271.600 204.400 271.600 223.200 M318.260 206.487 C 317.742 207.649,314.032 215.980,310.016 225.000 C 306.000 234.020,302.633 241.535,302.534 241.700 C 302.434 241.865,304.501 242.000,307.126 242.000 L 311.899 242.000 313.520 238.100 L 315.141 234.200 323.670 234.096 L 332.200 233.992 333.800 237.993 L 335.400 241.994 340.278 241.997 L 345.155 242.000 343.514 238.300 C 342.611 236.265,338.851 227.850,335.158 219.600 L 328.443 204.600 323.822 204.487 L 319.201 204.375 318.260 206.487 M137.171 207.854 C 138.207 209.171,138.213 209.787,137.200 210.800 C 134.851 213.149,131.355 210.102,133.616 207.675 C 134.720 206.490,136.155 206.562,137.171 207.854 M80.618 210.182 C 81.813 211.377,81.847 211.984,80.784 213.125 C 79.155 214.874,76.400 213.912,76.400 211.594 C 76.400 209.358,78.943 208.507,80.618 210.182 M326.603 220.592 C 328.037 224.074,329.143 226.990,329.060 227.073 C 328.978 227.156,326.485 227.173,323.521 227.112 L 318.132 227.000 320.466 221.400 C 323.610 213.860,323.604 213.871,323.813 214.079 C 323.913 214.180,325.169 217.111,326.603 220.592 M96.618 226.182 C 98.049 227.612,97.745 228.859,95.700 229.949 C 93.299 231.228,91.358 227.390,93.558 225.714 C 94.552 224.957,95.545 225.109,96.618 226.182 " stroke="none" fill="#2ca474" fill-rule="evenodd"></path><path id="path1" d="" stroke="none" fill="#30a474" fill-rule="evenodd"></path><path id="path2" d="" stroke="none" fill="#30a474" fill-rule="evenodd"></path></g></svg>